<?xml version="1.0" standalone="yes"?>

<svg version="1.1" viewBox="0.0 0.0 768.0 144.0" fill="none" stroke="none" stroke-linecap="square" stroke-miterlimit="10" xmlns="http://www.w3.org/2000/svg" xmlns:xlink="http://www.w3.org/1999/xlink"><clipPath id="p.0"><path d="m0 0l768.0 0l0 144.0l-768.0 0l0 -144.0z" clip-rule="nonzero"></path></clipPath><g clip-path="url(#p.0)"><path fill="#000000" fill-opacity="0.0" d="m0 0l768.0 0l0 144.0l-768.0 0z" fill-rule="evenodd"></path><path fill="#505050" d="m0.013252756 0l768.0 0l0 144.0l-768.0 0z" fill-rule="evenodd"></path><path fill="#1ae7a6" d="m17.653877 39.45687l7.96875 0l0 60.09375l27.171875 0l0 -16.703125l7.09375 0l0 23.8125l-42.234375 0l0 -67.203125zm59.33435 22.953125q4.125 -2.40625 9.296875 -3.453125q5.1875 -1.0625 10.1875 -1.0625q4.890625 0 8.0 1.53125q3.125 1.53125 4.90625 3.984375q1.78125 2.453125 2.40625 5.578125q0.625 3.109375 0.625 6.28125q0 3.640625 -0.203125 7.78125q-0.1875 4.125 -0.28125 8.25q0 4.796875 0.578125 9.125l6.421875 0l0 6.234375l-12.765625 0l-0.859375 -7.203125l-0.484375 0q-0.578125 0.859375 -1.734375 2.21875q-1.140625 1.34375 -3.015625 2.640625q-1.875 1.28125 -4.5625 2.25q-2.6875 0.953125 -6.328125 0.953125q-7.109375 0 -11.234375 -3.640625q-4.125 -3.65625 -4.125 -9.984375q0 -4.890625 2.15625 -8.15625q2.15625 -3.265625 6.1875 -4.984375q4.03125 -1.734375 9.75 -2.015625q5.71875 -0.296875 12.8125 0.75q0.484375 -4.40625 0.140625 -7.328125q-0.328125 -2.9375 -1.53125 -4.65625q-1.203125 -1.734375 -3.359375 -2.453125q-2.15625 -0.734375 -5.328125 -0.734375q-4.3125 0 -8.25 1.203125q-3.9375 1.203125 -7.015625 2.453125l-2.390625 -5.5625zm14.109375 38.6875q2.6875 0 4.984375 -0.859375q2.3125 -0.875 4.03125 -2.21875q1.734375 -1.34375 2.875 -2.921875q1.15625 -1.59375 1.734375 -3.03125l0 -6.71875q-4.984375 -0.859375 -9.21875 -0.859375q-4.21875 0 -7.296875 0.90625q-3.0625 0.90625 -4.796875 2.828125q-1.71875 1.921875 -1.71875 5.0q0 3.171875 2.15625 5.53125q2.15625 2.34375 7.25 2.34375zm33.3031 -61.640625l15.359383 0l0 24.671875l0.484375 0q2.5 -3.171875 6.4375 -4.890625q3.9375 -1.734375 8.546875 -1.734375q21.109375 0 21.109375 24.390625q0 12.375 -6.8125 18.953125q-6.8125 6.578125 -19.390625 6.578125q-5.953125 0 -10.75 -1.140625q-4.796875 -1.15625 -7.015625 -2.703125l0 -57.6875l-7.9687576 0l0 -6.4375zm29.859383 24.484375q-5.765625 0 -9.3125 3.265625q-3.546875 3.265625 -5.1875 9.21875l0 22.078125q2.21875 1.140625 5.28125 1.828125q3.078125 0.671875 6.4375 0.671875q3.84375 0 6.953125 -1.109375q3.125 -1.109375 5.328125 -3.453125q2.21875 -2.359375 3.40625 -6.0q1.203125 -3.65625 1.203125 -8.640625q0 -3.65625 -0.765625 -6.921875q-0.765625 -3.265625 -2.453125 -5.703125q-1.671875 -2.453125 -4.359375 -3.84375q-2.6875 -1.390625 -6.53125 -1.390625zm33.02185 18.71875q0 -11.609375 6.046875 -18.375q6.046875 -6.78125 17.28125 -6.78125q6.046875 0 10.40625 1.96875q4.375 1.96875 7.25 5.328125q2.890625 3.359375 4.28125 7.96875q1.390625 4.609375 1.390625 9.890625q0 5.765625 -1.53125 10.421875q-1.53125 4.65625 -4.515625 7.921875q-2.96875 3.25 -7.34375 5.03125q-4.359375 1.78125 -9.9375 1.78125q-5.953125 0 -10.375 -1.96875q-4.40625 -1.96875 -7.296875 -5.328125q-2.875 -3.359375 -4.265625 -7.96875q-1.390625 -4.609375 -1.390625 -9.890625zm7.96875 0q0 3.359375 0.8125 6.71875q0.828125 3.359375 2.640625 6.046875q1.828125 2.6875 4.75 4.328125q2.9375 1.625 7.15625 1.625q7.6875 0 11.5625 -4.75q3.890625 -4.75 3.890625 -13.96875q0 -3.453125 -0.8125 -6.765625q-0.8125 -3.3125 -2.6875 -6.0q-1.875 -2.6875 -4.796875 -4.3125q-2.921875 -1.640625 -7.15625 -1.640625q-7.671875 0 -11.515625 4.703125q-3.84375 4.703125 -3.84375 14.015625zm50.506226 24.0l0 -6.4375l12.95311 0l0 -35.125l-12.95311 0l0 -6.4375l17.937485 0l1.546875 6.234375l0.46875 0q3.265625 -2.96875 7.296875 -5.078125q4.03125 -2.109375 9.609375 -2.109375q3.265625 0 5.234375 1.25q1.96875 1.234375 3.0625 3.640625q1.109375 2.40625 1.484375 5.8125q0.390625 3.40625 0.390625 7.71875l-6.71875 0.09375q0 -6.140625 -1.203125 -9.015625q-1.203125 -2.890625 -4.359375 -2.890625q-2.984375 0 -5.390625 0.875q-2.390625 0.859375 -4.171875 2.109375q-1.765625 1.25 -3.015625 2.5q-1.25 1.25 -1.828125 2.109375l0 28.3125l18.4375 0l0 6.4375l-38.781235 0zm61.63121 -44.25q4.125 -2.40625 9.296875 -3.453125q5.1875 -1.0625 10.1875 -1.0625q4.890625 0 8.0 1.53125q3.125 1.53125 4.90625 3.984375q1.78125 2.453125 2.40625 5.578125q0.625 3.109375 0.625 6.28125q0 3.640625 -0.203125 7.78125q-0.1875 4.125 -0.28125 8.25q0 4.796875 0.578125 9.125l6.421875 0l0 6.234375l-12.765625 0l-0.859375 -7.203125l-0.484375 0q-0.578125 0.859375 -1.734375 2.21875q-1.140625 1.34375 -3.015625 2.640625q-1.875 1.28125 -4.5625 2.25q-2.6875 0.953125 -6.328125 0.953125q-7.109375 0 -11.234375 -3.640625q-4.125 -3.65625 -4.125 -9.984375q0 -4.890625 2.15625 -8.15625q2.15625 -3.265625 6.1875 -4.984375q4.03125 -1.734375 9.75 -2.015625q5.71875 -0.296875 12.8125 0.75q0.484375 -4.40625 0.140625 -7.328125q-0.328125 -2.9375 -1.53125 -4.65625q-1.203125 -1.734375 -3.359375 -2.453125q-2.15625 -0.734375 -5.328125 -0.734375q-4.3125 0 -8.25 1.203125q-3.9375 1.203125 -7.015625 2.453125l-2.390625 -5.5625zm14.109375 38.6875q2.6875 0 4.984375 -0.859375q2.3125 -0.875 4.03125 -2.21875q1.734375 -1.34375 2.875 -2.921875q1.15625 -1.59375 1.734375 -3.03125l0 -6.71875q-4.984375 -0.859375 -9.21875 -0.859375q-4.21875 0 -7.296875 0.90625q-3.0625 0.90625 -4.796875 2.828125q-1.71875 1.921875 -1.71875 5.0q0 3.171875 2.15625 5.53125q2.15625 2.34375 7.25 2.34375zm36.08435 -42.4375l11.4375 0l0 -9.5l7.484375 -2.109375l0 11.609375l25.625 0l0 6.4375l-25.625 0l0 22.65625q0 7.0 3.40625 10.359375q3.40625 3.359375 9.75 3.359375q4.3125 0 7.53125 -1.625q3.21875 -1.640625 5.8125 -3.5625l2.484375 5.671875q-3.359375 2.6875 -8.015625 4.328125q-4.65625 1.625 -9.546875 1.625q-3.84375 0 -7.25 -1.109375q-3.40625 -1.09375 -6.0 -3.390625q-2.59375 -2.3125 -4.125 -5.90625q-1.53125 -3.609375 -1.53125 -8.609375l0 -23.796875l-11.4375 0l0 -6.4375zm60.099976 24.0q0 -11.609375 6.046875 -18.375q6.046875 -6.78125 17.28125 -6.78125q6.046875 0 10.40625 1.96875q4.375 1.96875 7.25 5.328125q2.890625 3.359375 4.28125 7.96875q1.390625 4.609375 1.390625 9.890625q0 5.765625 -1.53125 10.421875q-1.53125 4.65625 -4.515625 7.921875q-2.96875 3.25 -7.34375 5.03125q-4.359375 1.78125 -9.9375 1.78125q-5.953125 0 -10.375 -1.96875q-4.40625 -1.96875 -7.296875 -5.328125q-2.875 -3.359375 -4.265625 -7.96875q-1.390625 -4.609375 -1.390625 -9.890625zm7.96875 0q0 3.359375 0.8125 6.71875q0.828125 3.359375 2.640625 6.046875q1.828125 2.6875 4.75 4.328125q2.9375 1.625 7.15625 1.625q7.6875 0 11.5625 -4.75q3.890625 -4.75 3.890625 -13.96875q0 -3.453125 -0.8125 -6.765625q-0.8125 -3.3125 -2.6875 -6.0q-1.875 -2.6875 -4.796875 -4.3125q-2.921875 -1.640625 -7.15625 -1.640625q-7.671875 0 -11.515625 4.703125q-3.84375 4.703125 -3.84375 14.015625zm50.506226 24.0l0 -6.4375l12.953125 0l0 -35.125l-12.953125 0l0 -6.4375l17.9375 0l1.546875 6.234375l0.46875 0q3.265625 -2.96875 7.296875 -5.078125q4.03125 -2.109375 9.609375 -2.109375q3.265625 0 5.234375 1.25q1.96875 1.234375 3.0625 3.640625q1.109375 2.40625 1.484375 5.8125q0.390625 3.40625 0.390625 7.71875l-6.71875 0.09375q0 -6.140625 -1.203125 -9.015625q-1.203125 -2.890625 -4.359375 -2.890625q-2.984375 0 -5.390625 0.875q-2.390625 0.859375 -4.171875 2.109375q-1.765625 1.25 -3.015625 2.5q-1.25 1.25 -1.828125 2.109375l0 28.3125l18.4375 0l0 6.4375l-38.78125 0zm81.1156 -7.390625l3.640625 0l11.90625 -40.609375l7.78125 0l-13.34375 43.109375q-1.0625 3.359375 -2.171875 7.625q-1.09375 4.28125 -3.109375 8.015625q-2.015625 3.75 -5.484375 6.34375q-3.453125 2.59375 -9.015625 2.59375q-1.25 0 -2.640625 -0.296875q-1.390625 -0.28125 -2.734375 -0.71875q-1.34375 -0.4375 -2.5 -1.015625q-1.140625 -0.5625 -1.71875 -1.140625l2.6875 -6.921875q0.578125 0.484375 1.578125 0.96875q1.015625 0.484375 2.203125 0.8125q1.203125 0.34375 2.359375 0.578125q1.15625 0.234375 1.921875 0.234375q7.203125 0 9.796875 -12.1875l-6.4375 0l-20.15625 -48.0l8.640625 0l16.796875 40.609375zm97.528076 0.484375l15.078125 0l0 -50.5l-15.359375 10.75l-3.75 -5.46875l21.125 -15.078125l5.375 0l0 60.296875l14.78125 0l0 6.90625l-37.25 0l0 -6.90625z" fill-rule="nonzero"></path><path fill="#1ae7a6" d="m693.31757 71.39603l0 0c0 -17.881851 14.721741 -32.377956 32.881897 -32.377956l0 0c8.720825 0 17.084473 3.4112396 23.251038 9.483284c6.166504 6.0720444 9.630859 14.307503 9.630859 22.894672l0 0c0 17.881851 -14.721741 32.377953 -32.881897 32.377953l0 0c-18.160156 0 -32.881897 -14.496101 -32.881897 -32.377953z" fill-rule="evenodd"></path><path stroke="#1ae7a6" stroke-width="1.0" stroke-linejoin="round" stroke-linecap="butt" d="m693.31757 71.39603l0 0c0 -17.881851 14.721741 -32.377956 32.881897 -32.377956l0 0c8.720825 0 17.084473 3.4112396 23.251038 9.483284c6.166504 6.0720444 9.630859 14.307503 9.630859 22.894672l0 0c0 17.881851 -14.721741 32.377953 -32.881897 32.377953l0 0c-18.160156 0 -32.881897 -14.496101 -32.881897 -32.377953z" fill-rule="evenodd"></path><path fill="#505050" d="m690.8845 73.75853l0 0c0 -16.577236 13.657043 -30.015747 30.503906 -30.015747l0 0c8.090149 0 15.848938 3.162365 21.56958 8.791409c5.720581 5.6290474 8.934387 13.263668 8.934387 21.224339l0 0c0 16.57724 -13.6571045 30.015747 -30.503967 30.015747l0 0c-16.846863 0 -30.503906 -13.438507 -30.503906 -30.015747z" fill-rule="evenodd"></path></g></svg>

