<svg version="1.1" viewBox="0.0 0.0 512.0 512.0" fill="none" stroke="none" stroke-linecap="square" stroke-miterlimit="10" xmlns:xlink="http://www.w3.org/1999/xlink" xmlns="http://www.w3.org/2000/svg"><clipPath id="p.0"><path d="m0 0l512.0 0l0 512.0l-512.0 0l0 -512.0z" clip-rule="nonzero"/></clipPath><g clip-path="url(#p.0)"><path fill="#0f3040" d="m0 0l512.0 0l0 512.0l-512.0 0z" fill-rule="evenodd"/><path fill="#000000" fill-opacity="0.0" d="m112.0 281.6l0 0c0 -79.52901 64.47099 -144.0 144.0 -144.0l0 0c38.191162 0 74.818146 15.171371 101.823364 42.17662c27.005249 27.005234 42.176636 63.632202 42.176636 101.82338l0 0c0 79.52899 -64.47101 144.0 -144.0 144.0l0 0c-79.52901 0 -144.0 -64.47101 -144.0 -144.0z" fill-rule="evenodd"/><path stroke="#a39bff" stroke-width="8.0" stroke-linejoin="round" stroke-linecap="butt" d="m112.0 281.6l0 0c0 -79.52901 64.47099 -144.0 144.0 -144.0l0 0c38.191162 0 74.818146 15.171371 101.823364 42.17662c27.005249 27.005234 42.176636 63.632202 42.176636 101.82338l0 0c0 79.52899 -64.47101 144.0 -144.0 144.0l0 0c-79.52901 0 -144.0 -64.47101 -144.0 -144.0z" fill-rule="evenodd"/><path fill="#000000" fill-opacity="0.0" d="m64.0 281.6l0 0c0 -106.03868 85.961334 -192.0 192.0 -192.0l0 0c50.92157 0 99.75751 20.228516 135.7645 56.235497c36.00699 36.00699 56.235504 84.84294 56.235504 135.76451l0 0c0 106.038666 -85.961334 192.0 -192.0 192.0l0 0c-106.038666 0 -192.0 -85.961334 -192.0 -192.0z" fill-rule="evenodd"/><path stroke="#03a9f4" stroke-width="8.0" stroke-linejoin="round" stroke-linecap="butt" d="m64.0 281.6l0 0c0 -106.03868 85.961334 -192.0 192.0 -192.0l0 0c50.92157 0 99.75751 20.228516 135.7645 56.235497c36.00699 36.00699 56.235504 84.84294 56.235504 135.76451l0 0c0 106.038666 -85.961334 192.0 -192.0 192.0l0 0c-106.038666 0 -192.0 -85.961334 -192.0 -192.0z" fill-rule="evenodd"/><path fill="#000000" fill-opacity="0.0" d="m16.0 281.6l0 0c0 -132.54834 107.45166 -240.0 240.0 -240.0l0 0c63.651947 0 124.6969 25.285645 169.70563 70.29437c45.008728 45.008736 70.29437 106.05367 70.29437 169.70563l0 0c0 132.54834 -107.45166 239.99997 -240.0 239.99997l0 0c-132.54834 0 -240.0 -107.45163 -240.0 -239.99997z" fill-rule="evenodd"/><path stroke="#ff74a5" stroke-width="8.0" stroke-linejoin="round" stroke-linecap="butt" d="m16.0 281.6l0 0c0 -132.54834 107.45166 -240.0 240.0 -240.0l0 0c63.651947 0 124.6969 25.285645 169.70563 70.29437c45.008728 45.008736 70.29437 106.05367 70.29437 169.70563l0 0c0 132.54834 -107.45166 239.99997 -240.0 239.99997l0 0c-132.54834 0 -240.0 -107.45163 -240.0 -239.99997z" fill-rule="evenodd"/><path fill="#0f3040" d="m0 192.45932l512.0 0l0 303.52756l-512.0 0z" fill-rule="evenodd"/><path fill="#4eefcd" d="m126.99213 468.04987l129.00787 -275.59055l129.00787 275.59055z" fill-rule="evenodd"/><path stroke="#0f3040" stroke-width="1.0" stroke-linejoin="round" stroke-linecap="butt" d="m126.99213 468.04987l129.00787 -275.59055l129.00787 275.59055z" fill-rule="evenodd"/><path fill="#0f3040" d="m102.89764 529.7402l0 0c0 -68.01367 85.1787 -123.14963 190.25195 -123.14963l0 0c105.07327 0 190.25198 55.135956 190.25198 123.14963l0 0c0 68.01361 -85.17871 123.1496 -190.25198 123.1496l0 0c-105.07326 0 -190.25195 -55.135986 -190.25195 -123.1496z" fill-rule="evenodd"/><path stroke="#0f3040" stroke-width="1.0" stroke-linejoin="round" stroke-linecap="butt" d="m102.89764 529.7402l0 0c0 -68.01367 85.1787 -123.14963 190.25195 -123.14963l0 0c105.07327 0 190.25198 55.135956 190.25198 123.14963l0 0c0 68.01361 -85.17871 123.1496 -190.25198 123.1496l0 0c-105.07326 0 -190.25195 -55.135986 -190.25195 -123.1496z" fill-rule="evenodd"/><path fill="#0f3040" d="m126.99213 602.4803l129.00787 -275.5905l129.00787 275.5905z" fill-rule="evenodd"/><path stroke="#0f3040" stroke-width="1.0" stroke-linejoin="round" stroke-linecap="butt" d="m126.99213 602.4803l129.00787 -275.5905l129.00787 275.5905z" fill-rule="evenodd"/><path fill="#0f3040" d="m96.661415 192.45932l0 -192.0l159.3386 192.0z" fill-rule="evenodd"/><path stroke="#0f3040" stroke-width="1.0" stroke-linejoin="round" stroke-linecap="butt" d="m96.661415 192.45932l0 -192.0l159.3386 192.0z" fill-rule="evenodd"/><path fill="#0f3040" d="m415.3386 192.45932l0 -192.0l-159.3386 192.0z" fill-rule="evenodd"/><path stroke="#0f3040" stroke-width="1.0" stroke-linejoin="round" stroke-linecap="butt" d="m415.3386 192.45932l0 -192.0l-159.3386 192.0z" fill-rule="evenodd"/><path fill="#0f3040" d="m8.343832 8.459317l109.66929 0l0 234.83464l-109.66929 0z" fill-rule="evenodd"/><path fill="#0f3040" d="m402.33072 8.459317l109.66928 0l0 234.83464l-109.66928 0z" fill-rule="evenodd"/></g></svg>