<?xml version="1.0" standalone="yes"?>

<svg version="1.1" height="100%" width="100%" xmlns="http://www.w3.org/2000/svg" xmlns:xlink="http://www.w3.org/1999/xlink">
  <defs>
    <radialGradient id="grad1" cx="50%" cy="50%" r="50%" fx="50%" fy="50%">
      <stop offset="70%" style="stop-color:#021728;stop-opacity:0" />
      <stop offset="100%" style="stop-color:#021728;stop-opacity:1" />
    </radialGradient>
    <symbol id="pixel">
      <rect id="pixelObject" class="pixelObject" fill="#ffffff" height="30" width="30" x="50%" y="50%"/>
    </symbol>
    <symbol id="pixelRow" class="pixelRow">
      <use href="#pixel" opacity="0.05" transform="translate(-635, -15)"/>
      <use href="#pixel" opacity="0.1" transform="translate(-604, -15)"/>
      <use href="#pixel" opacity="0.2" transform="translate(-573, -15)"/>
      <use href="#pixel" opacity="0.4" transform="translate(-542, -15)"/>
      <use href="#pixel" opacity="0.8" transform="translate(-511, -15)"/>
      <use href="#pixel" transform="translate(-480, -15)"/>
      <use href="#pixel" transform="translate(-449, -15)"/>
      <use href="#pixel" transform="translate(-418, -15)"/>
      <use href="#pixel" transform="translate(-387, -15)"/>
      <use href="#pixel" transform="translate(-356, -15)"/>
      <use href="#pixel" transform="translate(-325, -15)"/>
      <use href="#pixel" transform="translate(-294, -15)"/>
      <use href="#pixel" transform="translate(-263, -15)"/>
      <use href="#pixel" transform="translate(-232, -15)"/>
      <use href="#pixel" transform="translate(-201, -15)"/>
      <use href="#pixel" transform="translate(-170, -15)"/>
      <use href="#pixel" transform="translate(-139, -15)"/>
      <use href="#pixel" transform="translate(-108, -15)"/>
      <use href="#pixel" transform="translate(-77, -15)"/>
      <use href="#pixel" transform="translate(-46, -15)"/>
      <use href="#pixel" transform="translate(-15, -15)"/>
      <use href="#pixel" transform="translate(16, -15)"/>
      <use href="#pixel" transform="translate(47, -15)"/>
      <use href="#pixel" transform="translate(78, -15)"/>
      <use href="#pixel" transform="translate(109, -15)"/>
      <use href="#pixel" transform="translate(140, -15)"/>
      <use href="#pixel" transform="translate(171, -15)"/>
      <use href="#pixel" transform="translate(202, -15)"/>
      <use href="#pixel" transform="translate(233, -15)"/>
      <use href="#pixel" transform="translate(264, -15)"/>
      <use href="#pixel" transform="translate(295, -15)"/>
      <use href="#pixel" transform="translate(326, -15)"/>
      <use href="#pixel" transform="translate(357, -15)"/>
      <use href="#pixel" transform="translate(388, -15)"/>
      <use href="#pixel" transform="translate(419, -15)"/>
      <use href="#pixel" transform="translate(450, -15)"/>
      <use href="#pixel" opacity="0.8" transform="translate(481, -15)"/>
      <use href="#pixel" opacity="0.4" transform="translate(512, -15)"/>
      <use href="#pixel" opacity="0.2" transform="translate(543, -15)"/>
      <use href="#pixel" opacity="0.1" transform="translate(574, -15)"/>
      <use href="#pixel" opacity="0.05" transform="translate(605, -15)"/>
    </symbol>
    <symbol id="offsetPixelRow" class="pixelRow">
      <use href="#pixel" opacity="0.05" transform="translate(-635, -15)"/>
      <use href="#pixel" opacity="0.1" transform="translate(-604, -15)"/>
      <use href="#pixel" opacity="0.2" transform="translate(-573, -15)"/>
      <use href="#pixel" opacity="0.4" transform="translate(-542, -15)"/>
      <use href="#pixel" opacity="0.8" transform="translate(-511, -15)"/>
      <use href="#pixel" transform="translate(-480, -15)"/>
      <use href="#pixel" transform="translate(-449, -15)"/>
      <use href="#pixel" transform="translate(-418, -15)"/>
      <use href="#pixel" transform="translate(-387, -15)"/>
      <use href="#pixel" transform="translate(-356, -15)"/>
      <use href="#pixel" transform="translate(-325, -15)"/>
      <use href="#pixel" transform="translate(-294, -15)"/>
      <use href="#pixel" transform="translate(-263, -15)"/>
      <use href="#pixel" transform="translate(-232, -15)"/>
      <use href="#pixel" transform="translate(-201, -15)"/>
      <use href="#pixel" transform="translate(-170, -15)"/>
      <use href="#pixel" transform="translate(-139, -15)"/>
      <use href="#pixel" transform="translate(-108, -15)"/>
      <use href="#pixel" transform="translate(-77, -15)"/>
      <use href="#pixel" transform="translate(-46, -15)"/>
      <use href="#pixel" transform="translate(-15, -15)"/>
      <use href="#pixel" transform="translate(16, -15)"/>
      <use href="#pixel" transform="translate(47, -15)"/>
      <use href="#pixel" transform="translate(78, -15)"/>
      <use href="#pixel" transform="translate(109, -15)"/>
      <use href="#pixel" transform="translate(140, -15)"/>
      <use href="#pixel" transform="translate(171, -15)"/>
      <use href="#pixel" transform="translate(202, -15)"/>
      <use href="#pixel" transform="translate(233, -15)"/>
      <use href="#pixel" transform="translate(264, -15)"/>
      <use href="#pixel" transform="translate(295, -15)"/>
      <use href="#pixel" transform="translate(326, -15)"/>
      <use href="#pixel" transform="translate(357, -15)"/>
      <use href="#pixel" transform="translate(388, -15)"/>
      <use href="#pixel" transform="translate(419, -15)"/>
      <use href="#pixel" transform="translate(450, -15)"/>
      <use href="#pixel" transform="translate(481, -15)"/>
      <use href="#pixel" opacity="0.8" transform="translate(481, -15)"/>
      <use href="#pixel" opacity="0.4" transform="translate(512, -15)"/>
      <use href="#pixel" opacity="0.2" transform="translate(543, -15)"/>
      <use href="#pixel" opacity="0.1" transform="translate(574, -15)"/>
      <use href="#pixel" opacity="0.05" transform="translate(605, -15)"/>
    </symbol>
  </defs>
  <rect fill="#000000" id="canvas_background" height="500" width="100%" y="0"/>
  <g id="pixelArray">
    <use class="wtf" href="#pixelRow" transform="translate(0, -248)"/>
    <use href="#offsetPixelRow" transform="translate(-15, -217)"/>
    <use href="#pixelRow" transform="translate(0, -186)"/>
    <use href="#offsetPixelRow" transform="translate(-15, -155)"/>
    <use href="#pixelRow" transform="translate(0, -124)"/>
    <use href="#offsetPixelRow" transform="translate(-15, -93)"/>

    <use href="#pixelRow" transform="translate(0, -62)"/>
    <use href="#offsetPixelRow" transform="translate(-15, -31)"/>
    <use href="#pixelRow"/>
    <use href="#offsetPixelRow" transform="translate(-15, 31)"/>
    <use href="#pixelRow" transform="translate(0, 62)"/>
    <use href="#offsetPixelRow" transform="translate(-15, 93)"/>
    <use href="#pixelRow" transform="translate(0, 124)"/>
    <use href="#offsetPixelRow" transform="translate(-15, 155)"/>
    <use href="#pixelRow" transform="translate(0, 186)"/>
    <use href="#offsetPixelRow" transform="translate(-15, 217)"/>
    <use href="#pixelRow" transform="translate(0, 248)"/>
  </g>
  <script type="text/javascript" src="jumbotron.js"></script>
</svg>
