<?xml version="1.0" standalone="yes"?>

<svg version="1.1" viewBox="0.0 0.0 1024.0 500.0" fill="none" stroke="none" stroke-linecap="square" stroke-miterlimit="10" xmlns="http://www.w3.org/2000/svg" xmlns:xlink="http://www.w3.org/1999/xlink"><clipPath id="p.0"><path d="m0 0l1024.0 0l0 500.0l-1024.0 0l0 -500.0z" clip-rule="nonzero"></path></clipPath><g clip-path="url(#p.0)"><path fill="#000000" fill-opacity="0.0" d="m0 0l1024.0 0l0 500.0l-1024.0 0z" fill-rule="evenodd"></path><path fill="#505050" d="m0.018664304 0l1024.0 0l0 500.0l-1024.0 0z" fill-rule="evenodd"></path><path fill="#1ae7a6" d="m55.534275 206.28625l10.624996 0l0 80.125l36.234375 0l0 -22.28125l9.46875 0l0 31.75l-56.32812 0l0 -89.59375zm79.11252 30.578125q5.5 -3.1875 12.40625 -4.59375q6.921875 -1.421875 13.578125 -1.421875q6.53125 0 10.6875 2.0625q4.15625 2.046875 6.515625 5.3125q2.375 3.25 3.203125 7.421875q0.84375 4.15625 0.84375 8.375q0 4.875 -0.265625 10.375q-0.25 5.5 -0.375 11.0q0 6.40625 0.765625 12.171875l8.578125 0l0 8.3125l-17.03125 0l-1.15625 -9.59375l-0.640625 0q-0.765625 1.140625 -2.296875 2.9375q-1.53125 1.796875 -4.03125 3.53125q-2.5 1.71875 -6.09375 3.0q-3.578125 1.28125 -8.4375 1.28125q-9.46875 0 -14.984375 -4.859375q-5.5 -4.875 -5.5 -13.328125q0 -6.515625 2.875 -10.859375q2.890625 -4.359375 8.265625 -6.65625q5.375 -2.3125 12.984375 -2.6875q7.625 -0.390625 17.09375 1.015625q0.640625 -5.890625 0.1875 -9.796875q-0.4375 -3.90625 -2.046875 -6.203125q-1.59375 -2.3125 -4.484375 -3.265625q-2.875 -0.96875 -7.09375 -0.96875q-5.765625 0 -11.015625 1.609375q-5.234375 1.59375 -9.328125 3.265625l-3.203125 -7.4375zm18.8125 51.59375q3.578125 0 6.65625 -1.15625q3.078125 -1.15625 5.375 -2.9375q2.296875 -1.796875 3.828125 -3.90625q1.546875 -2.109375 2.3125 -4.03125l0 -8.96875q-6.65625 -1.140625 -12.296875 -1.140625q-5.625 0 -9.71875 1.21875q-4.09375 1.203125 -6.40625 3.765625q-2.296875 2.5625 -2.296875 6.65625q0 4.21875 2.875 7.359375q2.890625 3.140625 9.671875 3.140625zm44.409393 -82.171875l20.484375 0l0 32.890625l0.640625 0q3.328125 -4.21875 8.578125 -6.515625q5.25 -2.3125 11.390625 -2.3125q28.15628 0 28.15628 32.5q0 16.515625 -9.09375 25.296875q-9.0781555 8.765625 -25.84378 8.765625q-7.9375 0 -14.34375 -1.53125q-6.390625 -1.546875 -9.34375 -3.59375l0 -76.9375l-10.625 0l0 -8.5625zm39.8125 32.640625q-7.671875 0 -12.421875 4.359375q-4.734375 4.34375 -6.90625 12.28125l0 29.4375q2.953125 1.53125 7.046875 2.4375q4.09375 0.890625 8.578125 0.890625q5.109375 0 9.265625 -1.46875q4.171875 -1.484375 7.109375 -4.609375q2.953125 -3.140625 4.546875 -8.0q1.5937805 -4.875 1.5937805 -11.53125q0 -4.859375 -1.0312805 -9.203125q-1.015625 -4.359375 -3.25 -7.625q-2.234375 -3.265625 -5.828125 -5.109375q-3.578125 -1.859375 -8.703125 -1.859375zm44.034393 24.953125q0 -15.484375 8.0625 -24.5q8.0625 -9.03125 23.046875 -9.03125q8.0625 0 13.875 2.625q5.828125 2.625 9.671875 7.109375q3.84375 4.46875 5.6875 10.609375q1.859375 6.140625 1.859375 13.1875q0 7.6875 -2.046875 13.890625q-2.046875 6.203125 -6.015625 10.5625q-3.96875 4.34375 -9.796875 6.71875q-5.8125 2.359375 -13.234375 2.359375q-7.9375 0 -13.828125 -2.625q-5.890625 -2.625 -9.734375 -7.09375q-3.828125 -4.484375 -5.6875 -10.625q-1.859375 -6.140625 -1.859375 -13.1875zm10.625 0q0 4.484375 1.078125 8.96875q1.09375 4.46875 3.515625 8.0625q2.4375 3.578125 6.34375 5.75q3.90625 2.171875 9.546875 2.171875q10.234375 0 15.421875 -6.328125q5.1875 -6.34375 5.1875 -18.625q0 -4.609375 -1.09375 -9.015625q-1.09375 -4.421875 -3.59375 -8.0q-2.484375 -3.59375 -6.390625 -5.765625q-3.90625 -2.171875 -9.53125 -2.171875q-10.25 0 -15.375 6.265625q-5.109375 6.265625 -5.109375 18.6875zm67.3313 32.0l0 -8.578125l17.28125 0l0 -46.84375l-17.28125 0l0 -8.578125l23.9375 0l2.046875 8.3125l0.640625 0q4.34375 -3.953125 9.71875 -6.765625q5.375 -2.828125 12.796875 -2.828125q4.359375 0 6.984375 1.671875q2.625 1.65625 4.09375 4.859375q1.46875 3.203125 1.984375 7.75q0.515625 4.53125 0.515625 10.296875l-8.96875 0.125q0 -8.1875 -1.59375 -12.03125q-1.59375 -3.84375 -5.828125 -3.84375q-3.96875 0 -7.171875 1.15625q-3.1875 1.15625 -5.5625 2.828125q-2.359375 1.65625 -4.03125 3.328125q-1.65625 1.65625 -2.4375 2.796875l0 37.765625l24.578125 0l0 8.578125l-51.703125 0zm82.17499 -59.015625q5.5 -3.1875 12.40625 -4.59375q6.921875 -1.421875 13.578125 -1.421875q6.53125 0 10.6875 2.0625q4.15625 2.046875 6.515625 5.3125q2.375 3.25 3.203125 7.421875q0.84375 4.15625 0.84375 8.375q0 4.875 -0.265625 10.375q-0.25 5.5 -0.375 11.0q0 6.40625 0.765625 12.171875l8.578125 0l0 8.3125l-17.03125 0l-1.15625 -9.59375l-0.640625 0q-0.765625 1.140625 -2.296875 2.9375q-1.53125 1.796875 -4.03125 3.53125q-2.5 1.71875 -6.09375 3.0q-3.578125 1.28125 -8.4375 1.28125q-9.46875 0 -14.984375 -4.859375q-5.5 -4.875 -5.5 -13.328125q0 -6.515625 2.875 -10.859375q2.890625 -4.359375 8.265625 -6.65625q5.375 -2.3125 12.984375 -2.6875q7.625 -0.390625 17.09375 1.015625q0.640625 -5.890625 0.1875 -9.796875q-0.4375 -3.90625 -2.046875 -6.203125q-1.59375 -2.3125 -4.484375 -3.265625q-2.875 -0.96875 -7.09375 -0.96875q-5.765625 0 -11.015625 1.609375q-5.234375 1.59375 -9.328125 3.265625l-3.203125 -7.4375zm18.8125 51.59375q3.578125 0 6.65625 -1.15625q3.078125 -1.15625 5.375 -2.9375q2.296875 -1.796875 3.828125 -3.90625q1.546875 -2.109375 2.3125 -4.03125l0 -8.96875q-6.65625 -1.140625 -12.296875 -1.140625q-5.625 0 -9.71875 1.21875q-4.09375 1.203125 -6.40625 3.765625q-2.296875 2.5625 -2.296875 6.65625q0 4.21875 2.875 7.359375q2.890625 3.140625 9.671875 3.140625zm48.128174 -56.578125l15.234375 0l0 -12.671875l9.984375 -2.8125l0 15.484375l34.171875 0l0 8.578125l-34.171875 0l0 30.203125q0 9.34375 4.53125 13.828125q4.546875 4.484375 13.0 4.484375q5.765625 0 10.046875 -2.171875q4.296875 -2.1875 7.75 -4.75l3.328125 7.5625q-4.484375 3.578125 -10.703125 5.75q-6.203125 2.171875 -12.71875 2.171875q-5.125 0 -9.671875 -1.46875q-4.546875 -1.46875 -8.0 -4.53125q-3.453125 -3.078125 -5.5 -7.875q-2.046875 -4.8125 -2.046875 -11.46875l0 -31.734375l-15.234375 0l0 -8.578125zm80.12811 32.0q0 -15.484375 8.0625 -24.5q8.0625 -9.03125 23.046875 -9.03125q8.0625 0 13.875 2.625q5.828125 2.625 9.671875 7.109375q3.84375 4.46875 5.6875 10.609375q1.859375 6.140625 1.859375 13.1875q0 7.6875 -2.046875 13.890625q-2.046875 6.203125 -6.015625 10.5625q-3.96875 4.34375 -9.796875 6.71875q-5.8125 2.359375 -13.234375 2.359375q-7.9375 0 -13.828125 -2.625q-5.890625 -2.625 -9.734375 -7.09375q-3.828125 -4.484375 -5.6875 -10.625q-1.859375 -6.140625 -1.859375 -13.1875zm10.625 0q0 4.484375 1.078125 8.96875q1.09375 4.46875 3.515625 8.0625q2.4375 3.578125 6.34375 5.75q3.90625 2.171875 9.546875 2.171875q10.234375 0 15.421875 -6.328125q5.1875 -6.34375 5.1875 -18.625q0 -4.609375 -1.09375 -9.015625q-1.09375 -4.421875 -3.59375 -8.0q-2.484375 -3.59375 -6.390625 -5.765625q-3.90625 -2.171875 -9.53125 -2.171875q-10.25 0 -15.375 6.265625q-5.109375 6.265625 -5.109375 18.6875zm67.3313 32.0l0 -8.578125l17.28125 0l0 -46.84375l-17.28125 0l0 -8.578125l23.9375 0l2.046875 8.3125l0.640625 0q4.34375 -3.953125 9.71875 -6.765625q5.375 -2.828125 12.796875 -2.828125q4.359375 0 6.984375 1.671875q2.625 1.65625 4.09375 4.859375q1.46875 3.203125 1.984375 7.75q0.515625 4.53125 0.515625 10.296875l-8.96875 0.125q0 -8.1875 -1.59375 -12.03125q-1.59375 -3.84375 -5.828125 -3.84375q-3.96875 0 -7.171875 1.15625q-3.1875 1.15625 -5.5625 2.828125q-2.359375 1.65625 -4.03125 3.328125q-1.65625 1.65625 -2.4375 2.796875l0 37.765625l24.578125 0l0 8.578125l-51.703125 0zm108.159424 -9.859375l4.859375 0l15.875 -54.140625l10.359375 0l-17.78125 57.46875q-1.40625 4.484375 -2.890625 10.171875q-1.46875 5.703125 -4.15625 10.6875q-2.6875 5.0 -7.296875 8.453125q-4.609375 3.453125 -12.03125 3.453125q-1.65625 0 -3.515625 -0.390625q-1.859375 -0.375 -3.65625 -0.953125q-1.78125 -0.578125 -3.328125 -1.34375q-1.53125 -0.765625 -2.296875 -1.53125l3.578125 -9.21875q0.765625 0.640625 2.109375 1.28125q1.34375 0.640625 2.9375 1.078125q1.609375 0.453125 3.140625 0.765625q1.546875 0.328125 2.5625 0.328125q9.609375 0 13.0625 -16.25l-8.578125 0l-26.875 -64.0l11.515625 0l22.40625 54.140625zm53.23755 0.640625l20.109375 0l0 -67.328125l-20.484375 14.34375l-5.0 -7.296875l28.171875 -20.09375l7.15625 0l0 80.375l19.71875 0l0 9.21875l-49.671875 0l0 -9.21875z" fill-rule="nonzero"></path><path fill="#1ae7a6" d="m871.10394 249.97897l0 0c0 -24.604935 20.150696 -44.551178 45.007874 -44.551178l0 0c11.936829 0 23.384766 4.6937714 31.825378 13.048737c8.440613 8.354965 13.182495 19.686737 13.182495 31.502441l0 0c0 24.60495 -20.150696 44.551178 -45.007874 44.551178l0 0c-24.857178 0 -45.007874 -19.946228 -45.007874 -44.551178z" fill-rule="evenodd"></path><path stroke="#1ae7a6" stroke-width="1.0" stroke-linejoin="round" stroke-linecap="butt" d="m871.10394 249.97897l0 0c0 -24.604935 20.150696 -44.551178 45.007874 -44.551178l0 0c11.936829 0 23.384766 4.6937714 31.825378 13.048737c8.440613 8.354965 13.182495 19.686737 13.182495 31.502441l0 0c0 24.60495 -20.150696 44.551178 -45.007874 44.551178l0 0c-24.857178 0 -45.007874 -19.946228 -45.007874 -44.551178z" fill-rule="evenodd"></path><path fill="#505050" d="m867.77423 253.25179l0 0c0 -22.82196 18.684143 -41.32283 41.73224 -41.32283l0 0c11.068115 0 21.682861 4.353653 29.509216 12.10318c7.826294 7.749542 12.2230835 18.260162 12.2230835 29.21965l0 0c0 22.821976 -18.684204 41.32283 -41.7323 41.32283l0 0c-23.048096 0 -41.73224 -18.500854 -41.73224 -41.32283z" fill-rule="evenodd"></path></g></svg>

