<svg version="1.1" viewBox="0 0 1024 500" fill="none" stroke="none" stroke-linecap="square" stroke-miterlimit="10" xmlns:xlink="http://www.w3.org/1999/xlink" xmlns="http://www.w3.org/2000/svg">
  <rect fill="#021728" id="canvas_background" height="500" width="1024" y="0" x="0"/>
  <g style="stroke:rgb(4,42,73);stroke-width:2">
    <!--vertical grid lines-->
    <line x1="39" y1="1" x2="39" y2="497"/>
    <line x1="84" y1="1" x2="84" y2="497" stroke-width="5"/>
    <line x1="129" y1="1" x2="129" y2="497"/>
    <line x1="174" y1="1" x2="174" y2="497"/>
    <line x1="219" y1="1" x2="219" y2="497" stroke-width="5"/>
    <line x1="264" y1="1" x2="264" y2="497"/>
    <line x1="309" y1="1" x2="309" y2="497"/>
    <line x1="354" y1="1" x2="354" y2="497" stroke-width="5"/>
    <line x1="399" y1="1" x2="399" y2="497"/>
    <line x1="444" y1="1" x2="444" y2="497"/>
    <line x1="489" y1="1" x2="489" y2="497" stroke-width="5"/>
    <line x1="534" y1="1" x2="534" y2="497"/>
    <line x1="579" y1="1" x2="579" y2="497"/>
    <line x1="624" y1="1" x2="624" y2="497" stroke-width="5"/>
    <line x1="669" y1="1" x2="669" y2="497"/>
    <line x1="714" y1="1" x2="714" y2="497"/>
    <line x1="759" y1="1" x2="759" y2="497" stroke-width="5"/>
    <line x1="804" y1="1" x2="804" y2="497"/>
    <line x1="849" y1="1" x2="849" y2="497"/>
    <line x1="894" y1="1" x2="894" y2="497" stroke-width="5"/>
    <line x1="939" y1="1" x2="939" y2="497"/>
    <line x1="984" y1="1" x2="984" y2="497"/>
    <!--horizontal grid lines-->
    <line x1="1" y1="35" x2="1021" y2="35" stroke-width="5"/>
    <line x1="1" y1="80" x2="1021" y2="80"/>
    <line x1="1" y1="125" x2="1021" y2="125"/>
    <line x1="1" y1="170" x2="1021" y2="170" stroke-width="5"/>
    <line x1="1" y1="215" x2="1021" y2="215"/>
    <line x1="1" y1="260" x2="1021" y2="260"/>
    <line x1="1" y1="305" x2="1021" y2="305" stroke-width="5"/>
    <line x1="1" y1="350" x2="1021" y2="350"/>
    <line x1="1" y1="395" x2="1021" y2="395"/>
    <line x1="1" y1="440" x2="1021" y2="440" stroke-width="5"/>
    <line x1="1" y1="485" x2="1021" y2="485"/>
  </g>
  <!--main hex-->
  <polygon points="512,-50 252,100 252,400 512,550 772,400 772,100" style="fill:#000815;stroke:#194c6d;stroke-width:8;fill-opacity:0.7;stroke-opacity:1.0"/>
  <polyline points="320,255 704,255" style="stroke:#1ae732;stroke-width:2;fill-opacity:0"/>
  <text text-anchor="middle" x="512" y="235" fill="#ffffff" font-size="60" font-family="arial" font-weight="bold">Project Blueprint</text>
  <text text-anchor="middle" x="510" y="290" fill="#a92f39" font-size="34" font-family="arial" font-weight="bold">FitbitOS&#8482; Watch Face</text>

  <polygon points="937,439 976,439 961,424 972,413 1007,448 972,483 961,472 976,457 937,457" style="fill:#ffffff"/>
</svg>
